<svg width="2740" height="1810" viewBox="0 0 2740 1810" fill="none" xmlns="http://www.w3.org/2000/svg">
<path fill-rule="evenodd" clip-rule="evenodd" d="M2026.26 0.705653C2012.17 4.07133 2004.19 20.1281 2009.93 33.5541C2017.54 51.3231 2043.61 53.197 2053.09 36.6626C2063.76 18.0484 2047.1 -4.26938 2026.26 0.705653ZM1895.48 42.468C1871.24 53.5865 1873.52 92.1889 1898.83 99.2142C1932.17 108.474 1953.81 65.484 1925.78 45.6794C1918.49 40.528 1903.24 38.9113 1895.48 42.468ZM1998.29 161.604C1975.02 171.738 1983.02 208.099 2008.5 208.018C2023.3 207.967 2032.9 198.392 2032.9 183.665C2032.9 165.969 2014.78 154.425 1998.29 161.604ZM1888.38 208.591C1868.36 214.221 1854.08 235.767 1857.3 255.505C1866.05 309.025 1943.05 304.565 1943.22 250.53C1943.3 220.864 1916.81 200.596 1888.38 208.591ZM2144.59 942.721C2116.11 952.061 2108.44 986.262 2130.48 1005.66C2158.24 1030.1 2198.79 1002.7 2188.69 966.325C2184.2 950.173 2160.52 937.496 2144.59 942.721ZM1862.89 965.524C1820.3 979.332 1816.01 1039.55 1856.2 1059.32C1892.19 1077.03 1933.63 1048.37 1929.47 1008.64C1926.2 977.282 1892.98 955.772 1862.89 965.524ZM2409.15 979.001C2320.97 999.886 2233.59 1035.91 2119.82 1098.3C1985.31 1172.06 1894.66 1196.21 1837.25 1173.58C1833.24 1172.01 1829.61 1170.71 1829.18 1170.71C1827.02 1170.71 1829.68 1317.27 1832.1 1331.65C1874.81 1585.56 2144.22 1725.07 2372.41 1611.44C2587.68 1504.24 2648.88 1226.69 2498.77 1038.44C2480.67 1015.75 2436.25 973.269 2431.25 973.865C2430.81 973.916 2420.87 976.231 2409.15 979.001ZM2363.47 1119.51C2414.25 1136.84 2427.79 1203.05 2387.97 1239.41C2342.67 1280.78 2269.47 1248.31 2269.58 1186.88C2269.66 1137.28 2316.69 1103.54 2363.47 1119.51ZM2165.48 1299.4C2193.14 1308.82 2202.04 1346.16 2181.77 1367.83C2150.93 1400.8 2097.21 1370.23 2110.04 1327.01C2116.99 1303.63 2141.72 1291.3 2165.48 1299.4ZM1939.8 1380.35C1953.56 1386.89 1958.65 1408.04 1949.45 1420.46C1933.3 1442.28 1900.17 1431.21 1900.14 1403.99C1900.12 1384.23 1921.33 1371.6 1939.8 1380.35ZM2268.17 1463.59C2290.53 1478.67 2281.12 1510.96 2254.35 1510.96C2236.86 1510.96 2227.42 1500.92 2228.67 1483.66C2230.06 1464.42 2252.49 1453.03 2268.17 1463.59Z" fill="#2DC3FC"/>
<path fill-rule="evenodd" clip-rule="evenodd" d="M2322.44 1118.4C2269.09 1134.43 2252.06 1197.61 2290.68 1236.23C2336.98 1282.53 2415.25 1246.08 2410.22 1180.56C2406.95 1137.95 2362.38 1106.4 2322.44 1118.4ZM2140.92 1298.4C2094.34 1310.7 2100.62 1377.44 2148.66 1380.58C2193.24 1383.49 2209.22 1322.54 2169.22 1302.1C2161.68 1298.24 2148.19 1296.48 2140.92 1298.4ZM1915.04 1380.94C1899.87 1388.95 1895.88 1408.97 1906.92 1421.55C1923.37 1440.28 1953.53 1429.17 1953.53 1404.38C1953.53 1385.05 1932.04 1371.96 1915.04 1380.94ZM2243.4 1462.69C2224.16 1472.18 2223.98 1498.62 2243.09 1508.49C2257.94 1516.16 2276.68 1506.92 2279.32 1490.61C2282.65 1470.11 2261.57 1453.73 2243.4 1462.69Z" fill="#FBFBFC"/>
<path fill-rule="evenodd" clip-rule="evenodd" d="M9.54589 48.5232C-0.646677 52.9545 -2.90271 67.0125 5.26163 75.1768L10.2587 80.1739H57.437H104.615V219.21V358.247L109.612 363.244C116.998 370.629 130.923 369.402 135.436 360.973C136.442 359.092 136.949 311.671 136.949 219.159V80.1739H183.385C224.075 80.1739 230.336 79.8726 233.966 77.7268C245.099 71.1498 243.666 53.4615 231.6 48.4203C224.361 45.3927 16.5124 45.4882 9.54589 48.5232ZM938.51 48.4792C928.45 52.859 929.133 41.2187 929.163 208.004C929.199 348.554 929.368 358.901 931.735 361.825C939.296 371.151 955.721 369.997 959.748 359.856C960.821 357.152 961.548 334.9 961.872 294.754C962.349 235.436 962.459 233.511 965.737 224.538C986.284 168.35 1061.75 160.061 1093.74 210.48C1103.57 225.964 1104.03 229.778 1104.03 294.953C1104.03 357.923 1104.33 360.789 1111.55 365.845C1117.73 370.173 1127.08 368.998 1132.92 363.163L1138 358.078L1137.52 292.248L1137.04 226.412L1133.02 214.463C1110.42 147.296 1026.87 121.29 970.286 163.816L962.202 169.886L961.467 112.765C960.659 50.1473 960.99 52.2711 951.591 48.3469C945.807 45.9292 944.338 45.9439 938.51 48.4792ZM280.248 145.459C174.023 169.967 161.406 319.446 262.111 360.37C313.434 381.218 398.297 353.382 381.637 321.158C376.052 310.363 365.904 309.892 351.368 319.762C305.733 350.744 240.727 327.963 228.712 276.779L227.771 272.775L318.431 272.37L409.092 271.973L413.582 266.954L418.064 261.928L417.271 247.113C413.655 179.961 346.54 130.167 280.248 145.459ZM535.981 145.533C443.586 165.683 417.307 287.501 492.822 345.614C534.783 377.904 599.054 375.332 636.29 339.875L641.066 335.334L641.096 347.01C641.155 367.932 658.74 376.706 670.799 361.825C674.341 357.446 674.664 245.842 671.174 229.351C658.916 171.393 596.063 132.423 535.981 145.533ZM791.714 145.533C701.296 165.249 673.658 284.341 745.821 343.307C786.599 376.633 853.677 376.317 888.833 342.631C904.662 327.47 888.12 302.897 870.219 314.97C868.125 316.381 863.194 319.688 859.262 322.319C815.545 351.567 752.582 326.008 740.332 274.038C723.312 201.838 806.242 148.413 865.332 193.512C887.261 210.245 908.733 187.038 888.525 168.453C866.302 148.024 825.054 138.258 791.714 145.533ZM1256.15 145.459C1149.92 169.974 1137.3 319.446 1238.01 360.37C1289.33 381.218 1374.2 353.382 1357.54 321.158C1351.95 310.363 1341.8 309.892 1327.27 319.762C1281.63 350.744 1216.63 327.963 1204.61 276.779L1203.67 272.775L1294.33 272.37L1384.99 271.973L1389.48 266.954L1393.96 261.928L1393.17 247.113C1389.56 180.035 1322.36 130.181 1256.15 145.459ZM1429.43 148.369L1424.43 153.366V255.806V358.247L1429.43 363.244C1437.81 371.621 1450.68 369.769 1456.04 359.408C1457.87 355.866 1458.24 346.151 1458.24 300.78C1458.24 242.16 1458.77 236.582 1465.81 221.643C1482.68 185.855 1527.31 167.858 1565.34 181.519C1585.98 188.926 1601.68 170.415 1587.11 155.843C1565.48 134.216 1499.64 140.675 1466.49 167.682L1458.55 174.141L1457.99 163.015C1457.03 144.012 1441.66 136.134 1429.43 148.369ZM326.647 179.52C352.368 187.075 376.236 211.039 381.769 234.863L382.71 238.905H305.233H227.757L228.697 234.863C237.92 195.173 286.502 167.726 326.647 179.52ZM581.542 179.175C640.192 194.864 659.93 268.38 617.022 311.289C573.716 354.594 499.84 334.334 484.584 274.972C469.88 217.755 524.399 163.89 581.542 179.175ZM1302.55 179.52C1328.27 187.075 1352.14 211.039 1357.67 234.863L1358.61 238.905H1281.13H1203.66L1204.6 234.863C1213.82 195.173 1262.4 167.726 1302.55 179.52ZM1580.22 369.71V410.863H1625.05H1669.88L1669.88 699.297L1669.89 987.731L1679.52 999.489C1701.81 1026.72 1721.47 1056.54 1739.84 1090.98C1745.98 1102.5 1751.27 1111.92 1751.59 1111.92C1751.92 1111.92 1752.18 935.666 1752.18 720.241V328.558H1666.2H1580.22V369.71ZM1962.35 365.015C1962.35 385.121 1961.92 415.566 1961.38 432.674L1960.41 463.773H1926.84H1893.28V480.675V497.577H1927.08H1960.88V532.116V566.654H1915.32H1869.76V582.821V598.988H1915.32H1960.88L1960.88 619.932C1960.88 631.447 1960.44 651.296 1959.91 664.024L1958.95 687.172H1926.12H1893.28V703.339V719.506H1926.34H1959.41V786.114C1959.41 871.74 1959.77 873.254 1979.78 872.938C1989.95 872.769 1987.95 873.431 2044.15 851.862C2360.77 730.382 2695.31 992.449 2653.82 1329.44C2617.47 1624.65 2309.42 1805.19 2033.63 1692.94C1955.84 1661.27 1912.37 1627.04 1839.37 1539.97C1814.7 1510.56 1794.25 1486.76 1793.93 1487.09C1793.6 1487.42 1795.05 1513.75 1797.16 1545.62L1801 1603.55L1811.49 1615.99C1859.92 1673.39 1922.21 1724.64 1978.45 1753.34C2318.53 1926.9 2728.55 1676.7 2739.38 1289.03C2749.42 929.251 2409.47 663.135 2061.6 758.469C2051.32 761.29 2042.63 763.598 2042.31 763.598C2041.98 763.598 2041.72 684.232 2041.72 587.23V410.863H2093.8C2124.08 410.863 2147.46 410.26 2149.65 409.43L2153.42 407.997V369.902C2153.42 335.084 2153.2 331.703 2150.85 330.55C2149.43 329.859 2106.44 329.102 2055.31 328.874L1962.35 328.455V365.015ZM63.4629 479.301C34.4799 485.577 9.28134 510.209 2.52794 538.869C-0.837741 553.162 -0.845093 1623.65 2.52059 1637.93C9.03149 1665.53 30.2691 1687.79 58.3189 1696.38C66.7698 1698.97 81.1951 1699.08 405.175 1699.08H743.212L753.677 1695.79C821.057 1674.59 830.257 1578.82 768.08 1545.91C749.4 1536.02 771.703 1536.68 452.632 1536.68H163.404L163.382 1042.48C163.36 606.895 163.096 547.165 161.141 538.869C151.169 496.563 107.298 469.814 63.4629 479.301ZM1252.04 844.455C1054.53 859.027 890.722 1010.39 862.356 1204.57C837.885 1372.08 904.662 1527.15 1043.56 1625.37C1189.39 1728.5 1397.34 1723.61 1542.39 1613.64C1552.97 1605.63 1552.29 1605.39 1552.32 1617.14C1552.57 1713.83 1691.86 1730.2 1711.75 1635.88C1714.4 1623.28 1715 1278.35 1712.43 1240.54C1696.27 1003.04 1491.41 826.796 1252.04 844.455ZM1320.58 1006.84C1491.22 1029.21 1598.18 1211.67 1533.33 1369.76C1451.47 1569.34 1183.18 1597.6 1063.78 1419.21C936.982 1229.78 1094.29 977.171 1320.58 1006.84Z" fill="#042444"/>
</svg>
